<svg version="1.2" xmlns="http://www.w3.org/2000/svg" viewBox="0 0 1851 396" width="1851" height="396">
	<title>2tig92N2wKkndOFCyCgvStANPJf</title>
	<style>
		.s0 { fill: #051625 } 
	</style>
	<path class="s0" d="m385 142h10l17 3 16 8 8 7 7 10 6 12 9-11 11-10 13-9 16-8 8-2h9l21 3 17 5 11 6 6 5 6 12 3 12 1 10v190h-66l-1-2v-150l-2-20-3-9-4-5-7-3h-15l-11 4-7 5-2 5-1 8-1 167h-77l-1-170-4-11-4-3-12-3h-10l-11 3-7 6-3 7-1 8-1 163h-73l-1-1v-236l1-1h71v37h2l2-4 9-12 11-12 8-6 10-5z"/>
	<path class="s0" d="m1122 4h70v381h-69l-1-1 1-24-8 7-9 8-17 9-16 5-19 2-17-3-16-8-17-12-12-11-11-14-8-15-5-15-3-12-2-17v-33l3-21 5-18 7-16 10-16 12-13 12-9 14-7 18-4h23l17 3 14 5 12 7 13 13-1-3zm-51 204l-11 4-9 7-8 8-7 12-4 12-2 11v18l4 17 6 12 7 9 9 8 10 5 10 2h9l12-3 10-6 7-6 7-10 5-10 3-11 1-7v-18l-3-16-5-11-7-11-7-7-10-6-9-3z"/>
	<path class="s0" d="m1626 12h74l35 3 19 4 16 5 16 8 12 9 10 10 7 11 6 12 6 19 4 27v23l-5 18-8 14-10 11-14 10-22 12-24 10-23 10-17 9-8 7-8 14-3 10-1 7v9l3 12 6 12 7 7 10 6 9 2h11l17-4 16-8 13-9 10-9 6-8 2-4 4 2 13 11 10 9 11 9 6 5 1 3-11 17-11 12-5 5-10 9-16 10-17 8-16 5-15 3h-32l-11-2-15-5-15-8-13-10-9-10-9-14-6-12-5-15-4-18-1-13v-24l2-16 5-14 6-12 10-13 11-10 15-10 23-11 28-11 23-11 9-7h2l2-4 4-6 2-7v-18l-3-11-8-11-9-6-14-5-13-2-17-1h-74l-1-1v-58z"/>
	<path class="s0" d="m143 12h74l1 1v58l-1 1h-78l-21 2-14 4-9 5-9 8-5 11-2 15 1 11 3 7 4 6 7 6 14 8 23 10 32 13 16 9 13 10 12 12 8 13 6 16 2 7 1 9v30l-1 14-6 22-5 13-8 15-8 10-11 11-13 8-10 5-16 5-11 2h-31l-12-2-16-5-16-7-14-8-10-8-10-9-10-11-10-15-2-5 5-5 16-15 11-9 10-9 3 1 8 11 9 9 15 10 17 8 15 3h11l10-3 11-7 7-9 5-11 1-5v-18l-4-13-7-12-7-7-18-10-21-9-24-10-16-8-16-10-13-12-9-13-5-13-3-18 1-17 4-27 5-16 8-16 10-13 10-9 14-9 14-6 25-6 25-3z"/>
	<path class="s0" d="m252 13h584l1 3v55l-1 1h-584z"/>
	<path class="s0" d="m628 147h67l1 1 1 157 1 11 3 5 7 4 13 4h15l12-4 6-4 2-6 2-13 1-155h68v170l-3 19-8 16-10 11-16 10-21 10-17 5-25 3-19-1-17-3-12-4-16-8-13-9-8-8-7-11-5-12-2-13z"/>
	<path class="s0" d="m1325 142h13l20 3 15 5 15 8 14 12 9 10 10 16 7 15 5 16 3 15 1 12v19l-1 1-141 1-1 4v15l3 10 6 9 9 6 8 3 4 1h18l14-4 9-6 4-5 2-5h65l-1 7-5 13-7 13-10 13-12 12-10 7-12 7-21 8-18 3h-21l-17-3-16-7-12-7-12-11-8-8-7-10-6-10-6-14-4-15-2-8-1-9v-42l2-12 5-19 7-16 8-12 9-10 11-10 15-10 11-5 9-3zm4 50l-15 3-10 5-6 5-4 8-1 10 1 2h86l1-1-1-9-5-10-7-6-8-4-15-3z"/>
	<path class="s0" d="m866 4h72v381h-72l-1-1v-379z"/>
	<path class="s0" d="m1583 137h24l1 3-1 73-10-4-12-3h-13l-15 5-17 9-3 3-3 9-1 7-1 146h-70l-1-1v-238l1-2 70 1v27l5-5 9-11 10-8 16-8z"/>
	<path class="s0" d="m1228 13h358v58l-1 1h-357z"/>
	<path class="s0" d="m972 13h116v58l-1 1h-115l-1-1v-57z"/>
</svg>